<?xml version="1.0" encoding="UTF-8"?> <svg xmlns="http://www.w3.org/2000/svg" xmlns:xlink="http://www.w3.org/1999/xlink" id="Layer_2" data-name="Layer 2" viewBox="0 0 425.47 154.5"><defs><style> .cls-1 { fill: url(#linear-gradient); } .cls-1, .cls-2, .cls-3 { stroke-width: 0px; } .cls-4 { fill: #6e6f71; font-family: Ubuntu, Ubuntu; font-size: 45.09px; } .cls-2 { fill: #583895; } .cls-3 { fill: #fff; } .cls-5 { letter-spacing: 0em; } .cls-6 { letter-spacing: .06em; } </style><linearGradient id="linear-gradient" x1="-1.91" y1="14.26" x2="122.23" y2="138.39" gradientUnits="userSpaceOnUse"><stop offset="0" stop-color="#c0bfbf"></stop><stop offset=".6" stop-color="#583895"></stop></linearGradient></defs><g id="Layer_1-2" data-name="Layer 1"><g><path class="cls-2" d="M397.81,82.98c3.39,0,5.79-.33,7.19-.99,1.41-.66,2.11-1.94,2.11-3.84,0-1.49-.91-2.79-2.73-3.91-1.82-1.12-4.59-2.38-8.31-3.78-2.89-1.07-5.52-2.19-7.88-3.35-2.36-1.16-4.36-2.54-6.02-4.15-1.65-1.61-2.94-3.53-3.84-5.77-.91-2.23-1.36-4.92-1.36-8.06,0-6.12,2.27-10.96,6.82-14.51,4.55-3.55,10.79-5.33,18.73-5.33,3.97,0,7.77.35,11.41,1.05,3.64.7,6.53,1.47,8.68,2.3l-3.22,14.39c-2.15-.74-4.49-1.4-7.01-1.98-2.52-.58-5.36-.87-8.5-.87-5.79,0-8.68,1.61-8.68,4.84,0,.74.12,1.41.37,1.98.25.58.74,1.14,1.49,1.67.74.54,1.76,1.12,3.04,1.74,1.28.63,2.92,1.31,4.9,2.06,4.05,1.5,7.4,2.98,10.05,4.44,2.65,1.46,4.73,3.04,6.26,4.72,1.53,1.69,2.6,3.57,3.22,5.63.62,2.06.93,4.46.93,7.18,0,6.44-2.42,11.31-7.26,14.61-4.84,3.3-11.68,4.95-20.53,4.95-5.79,0-10.6-.5-14.45-1.49-3.85-.99-6.51-1.82-8-2.48l3.1-15.01c3.14,1.24,6.37,2.21,9.67,2.91,3.31.7,6.57,1.05,9.8,1.05Z"></path><g><path class="cls-2" d="M197.24,82.98c3.39,0,5.79-.33,7.19-.99,1.41-.66,2.11-1.94,2.11-3.84,0-1.49-.91-2.79-2.73-3.91-1.82-1.12-4.59-2.38-8.31-3.78-2.89-1.07-5.52-2.19-7.88-3.35-2.36-1.16-4.36-2.54-6.02-4.15-1.65-1.61-2.94-3.53-3.84-5.77-.91-2.23-1.36-4.92-1.36-8.06,0-6.12,2.27-10.96,6.82-14.51,4.55-3.55,10.79-5.33,18.73-5.33,3.97,0,7.77.35,11.41,1.05,3.64.7,6.53,1.47,8.68,2.3l-3.22,14.39c-2.15-.74-4.49-1.4-7.01-1.98-2.52-.58-5.36-.87-8.5-.87-5.79,0-8.68,1.61-8.68,4.84,0,.74.12,1.41.37,1.98.25.58.74,1.14,1.49,1.67.74.54,1.76,1.12,3.04,1.74,1.28.63,2.92,1.31,4.9,2.06,4.05,1.5,7.4,2.98,10.05,4.44,2.65,1.46,4.73,3.04,6.26,4.72,1.53,1.69,2.6,3.57,3.22,5.63.62,2.06.93,4.46.93,7.18,0,6.44-2.42,11.31-7.26,14.61-4.84,3.3-11.68,4.95-20.53,4.95-5.79,0-10.6-.5-14.45-1.49-3.85-.99-6.51-1.82-8-2.48l3.1-15.01c3.14,1.24,6.37,2.21,9.67,2.91,3.31.7,6.57,1.05,9.8,1.05Z"></path><path class="cls-2" d="M262.11,29.27c5.46,0,10,.62,13.64,1.86,3.64,1.24,6.55,3.02,8.74,5.33,2.19,2.32,3.74,5.13,4.65,8.43.91,3.31,1.36,6.99,1.36,11.04v38.45c-2.65.58-6.33,1.26-11.04,2.05s-10.42,1.18-17.12,1.18c-4.22,0-8.04-.37-11.47-1.12-3.43-.74-6.39-1.96-8.87-3.66-2.48-1.69-4.38-3.91-5.71-6.63-1.32-2.73-1.99-6.08-1.99-10.05s.76-7.03,2.29-9.67c1.53-2.64,3.58-4.75,6.14-6.33,2.56-1.57,5.5-2.71,8.81-3.41,3.31-.7,6.74-1.05,10.3-1.05,2.4,0,4.53.1,6.39.31,1.86.21,3.37.48,4.53.81v-1.74c0-3.14-.95-5.66-2.85-7.57-1.9-1.9-5.21-2.85-9.92-2.85-3.14,0-6.24.23-9.3.68-3.06.46-5.71,1.1-7.94,1.92l-2.36-14.88c1.07-.33,2.42-.68,4.03-1.05,1.61-.37,3.37-.7,5.27-.99,1.9-.29,3.91-.54,6.02-.74,2.11-.21,4.24-.31,6.39-.31ZM263.6,83.35c1.82,0,3.55-.04,5.21-.12,1.65-.08,2.98-.21,3.97-.37v-14.02c-.74-.16-1.86-.33-3.35-.5-1.49-.16-2.85-.25-4.09-.25-1.74,0-3.37.11-4.9.31-1.53.21-2.87.6-4.03,1.18-1.16.58-2.07,1.36-2.73,2.36-.66.99-.99,2.23-.99,3.72,0,2.9.97,4.9,2.91,6.02,1.94,1.12,4.61,1.67,8,1.67Z"></path><path class="cls-2" d="M325.74,54.44c1.82-1.97,3.7-4.03,5.64-6.17,1.94-2.14,3.82-4.25,5.64-6.35,1.82-2.1,3.53-4.09,5.14-5.98,1.61-1.89,2.99-3.53,4.15-4.93h21.98c-4.38,5.04-8.66,9.84-12.84,14.42-4.18,4.58-8.74,9.3-13.71,14.17,2.48,2.24,5.04,4.91,7.69,8.01,2.65,3.11,5.21,6.32,7.69,9.63,2.48,3.31,4.75,6.63,6.82,9.94,2.07,3.31,3.8,6.34,5.21,9.07h-21.25c-1.32-2.15-2.83-4.54-4.52-7.15-1.69-2.61-3.49-5.22-5.39-7.83-1.9-2.61-3.9-5.12-6-7.52-2.1-2.4-4.19-4.43-6.25-6.09v28.6h-18.48V2.98l18.48-2.98v54.44Z"></path><text class="cls-4" transform="translate(178.06 145.98)"><tspan class="cls-6" x="0" y="0">INITI</tspan><tspan class="cls-5" x="108.21" y="0">A</tspan><tspan class="cls-6" x="137.92" y="0">TIVE</tspan></text></g></g><rect class="cls-1" y="16.17" width="137.07" height="137.07" rx="22.08" ry="22.08"></rect><g><path class="cls-3" d="M91.72,103.69c-1.27,1.3-2.57,2.48-3.93,3.55.1.96.16,1.96.16,2.99,0,6.78-2.44,12.46-7.3,17.05-4.86,4.59-10.65,6.88-17.36,6.88-6.34,0-11.97-2.12-16.87-6.37l9.02-10.82c.34.4.73.77,1.17,1.11,2.91,2.31,6.48,3.02,10.67,2.17,3.12-1.45,5.13-3.4,6.03-5.87.37-1.02.56-2.14.56-3.34,0-3.76-1.2-6.5-3.6-8.21-.64-.47-1.32-.9-2-1.31-1.84-1.1-3.81-2-5.91-2.7-.27-.14-.56-.26-.87-.36-.31-.1-.6-.19-.87-.26-.21-.06-.4-.13-.57-.21-.17-.06-.35-.13-.56-.2-2.27-.75-4.39-1.59-6.38-2.52-1.98-.92-3.86-2.27-5.65-4.05-1.57-1.64-2.85-3.53-3.85-5.65-.99-2.13-1.66-4.32-2-6.58,0-.41-.02-.8-.06-1.18-.02-.38-.04-.77-.04-1.18,0-6.23,2.22-11.39,6.68-15.47,4.45-4.07,9.69-6.1,15.71-6.1s11.08,2.1,15.57,6.31c.7.66,1.35,1.35,1.94,2.06l-10.93,9.2c-.41-.65-.92-1.23-1.54-1.76-1.71-1.43-3.67-2.16-5.86-2.16s-4.07.76-5.44,2.27c-1.37,1.5-2.05,3.36-2.05,5.54v.21c-.08,2.47.75,4.35,2.46,5.65,1.71,1.3,3.6,2.33,5.65,3.09.2.06.45.15.71.25.28.11.52.19.73.26.34.13.68.26,1.02.36.35.1.69.22,1.03.35,2.33.76,4.58,1.6,6.73,2.52,2.16.93,4.16,2.18,6.01,3.75.55.42,1.07.87,1.56,1.33l.21-.21c4.96-5.2,7.45-11.17,7.45-17.87,0-7.13-2.44-13.27-7.3-18.45-3.77-4.01-8.17-6.46-13.17-7.36l3.28-13.32c7.36,1.45,13.93,5.07,19.7,10.88,7.7,7.73,11.56,16.98,11.56,27.73s-3.84,20.16-11.5,28Z"></path><path class="cls-3" d="M53.48,42.65c0-4.09,3.31-7.4,7.4-7.4s7.39,3.31,7.39,7.4-3.31,7.39-7.39,7.39-7.4-3.31-7.4-7.39Z"></path></g></g></svg> 