<svg width="635" height="101" viewBox="0 0 635 101" fill="none" xmlns="http://www.w3.org/2000/svg">
<path d="M144.094 17.4925C157.579 17.4925 166.136 23.889 166.136 35.299C166.136 47.1412 157.665 63.7375 134.932 63.7375H130.35L127.325 78H107.617L120.41 17.4925H144.094ZM133.722 47.8327H137.525C143.576 47.8327 146.169 42.0413 146.169 38.4108C146.169 35.299 144.181 33.3973 140.81 33.3973H136.747L133.722 47.8327ZM221.61 34.2617C221.61 42.3006 217.72 52.3275 207.52 57.6868L214.522 78H193.69L188.59 61.4901H185.651L182.194 78H162.486L175.279 17.4925H199.482C213.139 17.4925 221.61 23.7161 221.61 34.2617ZM196.111 33.3973H191.616L188.85 46.3632H192.653C198.877 46.3632 201.556 41.1769 201.556 38.2379C201.556 35.299 199.568 33.3973 196.111 33.3973ZM237.907 78H218.198L230.991 17.4925H250.786L237.907 78ZM264.828 78H245.38L258.173 17.4925H275.547L286.352 44.2887L292.057 17.4925H311.506L298.713 78H281.943L270.706 50.253L264.828 78ZM316.528 17.4925H364.502L360.871 34.3482H346.609L337.446 78H317.738L326.987 34.3482H312.897L316.528 17.4925ZM413.427 17.4925L410.056 33.6567H385.68L383.605 43.5972H405.129L401.931 58.724H380.407L376.344 78H356.636L369.429 17.4925H413.427ZM434.137 79.2101C418.492 79.2101 408.897 70.3933 408.897 55.4394C408.897 37.2007 422.036 16.2824 443.991 16.2824C459.637 16.2824 469.232 25.0127 469.232 39.9667C469.232 58.2054 456.093 79.2101 434.137 79.2101ZM436.644 62.0087C443.991 62.0087 448.918 49.2157 448.918 42.2141C448.918 36.5956 446.325 33.4838 441.398 33.4838C434.137 33.4838 429.21 46.2768 429.21 53.3648C429.21 58.8105 431.717 62.0087 436.644 62.0087ZM526.933 34.2617C526.933 42.3006 523.043 52.3275 512.844 57.6868L519.845 78H499.013L493.913 61.4901H490.974L487.517 78H467.809L480.602 17.4925H504.805C518.462 17.4925 526.933 23.7161 526.933 34.2617ZM501.434 33.3973H496.939L494.173 46.3632H497.976C504.2 46.3632 506.879 41.1769 506.879 38.2379C506.879 35.299 504.891 33.3973 501.434 33.3973ZM552.219 79.2966C536.66 79.2966 527.411 69.7883 527.411 55.6122C527.411 37.1142 540.636 16.2824 564.321 16.2824C571.668 16.2824 577.978 18.0976 583.165 21.8145L573.224 37.2007C570.026 34.6939 566.568 33.4838 562.592 33.4838C552.997 33.4838 547.811 45.5853 547.811 53.1055C547.811 58.8969 551.009 62.0087 555.418 62.0087C560.258 62.0087 564.667 60.7986 568.816 58.2918L572.187 73.678C566.05 77.3085 558.702 79.2966 552.219 79.2966ZM634.013 17.4925L630.642 33.3973H605.402L603.932 40.226H625.542L622.43 54.7478H600.82L599.265 62.0952H625.196L621.825 78H576.617L589.411 17.4925H634.013Z" fill="#D6285C"/>
<rect y="6" width="88.5552" height="81.4708" rx="17.6423" fill="#2F84FF"/>
<g clip-path="url(#clip0_501_9)">
<path d="M83.8173 6.27756C83.5398 6.27756 83.4473 6.46256 83.2623 6.55506L48.5748 31.1601C48.2048 31.4376 47.6498 32.1776 47.3723 32.6401L46.1698 34.9526C52.8298 37.0801 57.9173 42.1676 60.0448 48.8276L62.3573 47.6251C62.8198 47.3476 63.4673 46.8851 63.8373 46.4226L88.4423 11.7351C88.7198 11.2726 88.8123 10.9026 88.4423 10.5326L84.3723 6.46256C84.1873 6.27756 84.0023 6.18506 83.8173 6.18506V6.27756ZM39.6023 43.0001C32.7573 43.0001 27.4848 48.6426 27.4848 55.3951C27.4848 64.5526 22.3973 72.5076 15.0898 76.7626C18.6973 78.7976 23.0448 79.9076 27.4848 79.9076C41.0823 79.9076 52.0898 68.9926 52.0898 55.3026C52.0898 48.4576 46.4473 42.9076 39.6948 42.9076L39.6023 43.0001Z" fill="white"/>
</g>
<defs>
<clipPath id="clip0_501_9">
<rect width="74" height="74" fill="white" transform="translate(15 6)"/>
</clipPath>
</defs>
</svg>
