<?xml version="1.0" encoding="UTF-8" standalone="no"?>
<svg
   xmlns:dc="http://purl.org/dc/elements/1.1/"
   xmlns:cc="http://creativecommons.org/ns#"
   xmlns:rdf="http://www.w3.org/1999/02/22-rdf-syntax-ns#"
   xmlns:svg="http://www.w3.org/2000/svg"
   xmlns="http://www.w3.org/2000/svg"
   xmlns:sodipodi="http://sodipodi.sourceforge.net/DTD/sodipodi-0.dtd"
   xmlns:inkscape="http://www.inkscape.org/namespaces/inkscape"
   id="Layer_1"
   enable-background="new 0 0 512 512"
   height="512"
   viewBox="0 0 512 512"
   width="512"
   version="1.1"
   sodipodi:docname="hardware (copy).svg"
   inkscape:version="0.92.4 (5da689c313, 2019-01-14)">
  <metadata
     id="metadata13">
    <rdf:RDF>
      <cc:Work
         rdf:about="">
        <dc:format>image/svg+xml</dc:format>
        <dc:type
           rdf:resource="http://purl.org/dc/dcmitype/StillImage" />
      </cc:Work>
    </rdf:RDF>
  </metadata>
  <defs
     id="defs11" />
  <sodipodi:namedview
     pagecolor="#ffffff"
     bordercolor="#666666"
     borderopacity="1"
     objecttolerance="10"
     gridtolerance="10"
     guidetolerance="10"
     inkscape:pageopacity="0"
     inkscape:pageshadow="2"
     inkscape:window-width="1366"
     inkscape:window-height="704"
     id="namedview9"
     showgrid="false"
     inkscape:zoom="0.4609375"
     inkscape:cx="-208.27119"
     inkscape:cy="256"
     inkscape:window-x="0"
     inkscape:window-y="27"
     inkscape:window-maximized="1"
     inkscape:current-layer="Layer_1" />
  <path
     d="m496 176c8.837 0 16-7.164 16-16v-48c0-8.836-7.163-16-16-16s-16 7.164-16 16v32h-48c0-35.29-28.71-64-64-64v-48h32c8.837 0 16-7.164 16-16s-7.163-16-16-16h-48c-8.837 0-16 7.164-16 16v64h-32v-64c0-8.836-7.163-16-16-16s-16 7.164-16 16v64h-32v-64c0-8.836-7.163-16-16-16s-16 7.164-16 16v64h-32v-64c0-8.836-7.163-16-16-16h-48c-8.837 0-16 7.164-16 16s7.163 16 16 16h32v48c-35.29 0-64 28.71-64 64h-48v-32c0-8.836-7.163-16-16-16s-16 7.164-16 16v48c0 8.836 7.163 16 16 16h64v32h-64c-8.837 0-16 7.164-16 16s7.163 16 16 16h64v32h-64c-8.837 0-16 7.164-16 16s7.163 16 16 16h64v32h-64c-8.837 0-16 7.164-16 16v48c0 8.836 7.163 16 16 16s16-7.164 16-16v-32h48c0 35.29 28.71 64 64 64v48h-32c-8.837 0-16 7.164-16 16s7.163 16 16 16h48c8.837 0 16-7.164 16-16v-64h32v64c0 8.836 7.163 16 16 16s16-7.164 16-16v-64h32v64c0 8.836 7.163 16 16 16s16-7.164 16-16v-64h32v64c0 8.836 7.163 16 16 16h48c8.837 0 16-7.164 16-16s-7.163-16-16-16h-32v-48c35.29 0 64-28.71 64-64h48v32c0 8.836 7.163 16 16 16s16-7.164 16-16v-48c0-8.836-7.163-16-16-16h-64v-32h64c8.837 0 16-7.164 16-16s-7.163-16-16-16h-64v-32h64c8.837 0 16-7.164 16-16s-7.163-16-16-16h-64v-32zm-96 192c0 17.645-14.355 32-32 32h-224c-17.645 0-32-14.355-32-32v-224c0-17.645 14.355-32 32-32h224c17.645 0 32 14.355 32 32z"
     id="path2"
     style="fill:#ffffff;fill-opacity:1" />
  <path
     d="m352 144h-192c-8.837 0-16 7.164-16 16v192c0 8.836 7.163 16 16 16h192c8.837 0 16-7.164 16-16v-192c0-8.836-7.163-16-16-16zm-16 192h-160v-160h160z"
     id="path4"
     style="fill:#ffffff;fill-opacity:1" />
  <path
     d="m240 320h64c8.837 0 16-7.164 16-16v-64c0-8.836-7.163-16-16-16s-16 7.164-16 16v48h-48c-8.837 0-16 7.164-16 16s7.163 16 16 16z"
     id="path6"
     style="fill:#ffffff;fill-opacity:1" />
</svg>
