<svg width="89" height="82" viewBox="0 0 89 82" fill="none" xmlns="http://www.w3.org/2000/svg">
<rect width="88.5552" height="81.4708" rx="17.6423" fill="#2F84FF"/>
<g clip-path="url(#clip0_501_10)">
<path d="M83.8173 0.277559C83.5398 0.277559 83.4473 0.462559 83.2623 0.555059L48.5748 25.1601C48.2048 25.4376 47.6498 26.1776 47.3723 26.6401L46.1698 28.9526C52.8298 31.0801 57.9173 36.1676 60.0448 42.8276L62.3573 41.6251C62.8198 41.3476 63.4673 40.8851 63.8373 40.4226L88.4423 5.73506C88.7198 5.27256 88.8123 4.90256 88.4423 4.53256L84.3723 0.462559C84.1873 0.277559 84.0023 0.185059 83.8173 0.185059V0.277559ZM39.6023 37.0001C32.7573 37.0001 27.4848 42.6426 27.4848 49.3951C27.4848 58.5526 22.3973 66.5076 15.0898 70.7626C18.6973 72.7976 23.0448 73.9076 27.4848 73.9076C41.0823 73.9076 52.0898 62.9926 52.0898 49.3026C52.0898 42.4576 46.4473 36.9076 39.6948 36.9076L39.6023 37.0001Z" fill="white"/>
</g>
<defs>
<clipPath id="clip0_501_10">
<rect width="74" height="74" fill="white" transform="translate(15)"/>
</clipPath>
</defs>
</svg>
